<svg xmlns="http://www.w3.org/2000/svg" viewBox="-397.52 -169 769.04 458.8"><defs><linearGradient id="sdark1" gradientUnits="userSpaceOnUse" x1="-12" y1="-30.79" x2="-22.84" y2="-109.55"><stop offset="0" stop-color="#A40D8F"/><stop offset="0.45" stop-color="#820AAA"/></linearGradient><linearGradient id="sdark2" gradientUnits="userSpaceOnUse" x1="2.12" y1="-27.98" x2="44.69" y2="-100.64"><stop offset="0" stop-color="#890F93"/><stop offset="0.45" stop-color="#820AAA"/></linearGradient><linearGradient id="sdark3" gradientUnits="userSpaceOnUse" x1="-25.7" y1="-23.32" x2="-86.53" y2="-75.45"><stop offset="0" stop-color="#BD0B8B"/><stop offset="0.45" stop-color="#F7147F"/></linearGradient><linearGradient id="sdark4" gradientUnits="userSpaceOnUse" x1="-30.88" y1="-11.32" x2="-113.52" y2="-20.1"><stop offset="0" stop-color="#C70B8A"/><stop offset="0.45" stop-color="#F7147F"/></linearGradient><linearGradient id="sdark5" gradientUnits="userSpaceOnUse" x1="-28.87" y1="0.44" x2="-102.3" y2="35.34"><stop offset="0" stop-color="#C30B8A"/><stop offset="0.45" stop-color="#F7147F"/></linearGradient><linearGradient id="sdark6" gradientUnits="userSpaceOnUse" x1="-19.51" y1="10.33" x2="-36.58" y2="41.72"><stop offset="0" stop-color="#B10C8D"/><stop offset="0.45" stop-color="#F7147F"/></linearGradient><linearGradient id="sdark7" gradientUnits="userSpaceOnUse" x1="-36" y1="-15" x2="18" y2="-3"><stop offset="0" stop-color="#D00A88"/><stop offset="1" stop-color="#6C1198"/></linearGradient><linearGradient id="sdark8" gradientUnits="userSpaceOnUse" x1="35" y1="-23" x2="84" y2="-46"><stop offset="0.15" stop-color="#820AAA"/><stop offset="0.85" stop-color="#F7147F"/></linearGradient><linearGradient id="sdark9" gradientUnits="userSpaceOnUse" x1="4" y1="39" x2="16" y2="91"><stop offset="0.15" stop-color="#F7147F"/><stop offset="0.85" stop-color="#820AAA"/></linearGradient></defs><path d="M-7.44 -31.42 C-12.67 -62.8 -17.44 -97.46 -15.51 -110.56 L-30.17 -108.55 C-24.77 -96.45 -20 -61.79 -16.56 -30.17 Z" fill="url(#sdark1)"/><circle cx="-24" cy="-118" r="15.5" fill="#820AAA"/><path d="M6.09 -25.66 C22.34 -55.18 41.07 -87.15 51.08 -96.9 L38.31 -104.39 C34.69 -90.89 15.96 -58.92 -1.85 -30.31 Z" fill="url(#sdark2)"/><circle cx="49" cy="-108" r="15.5" fill="#820AAA"/><path d="M-22.71 -26.81 C-47.63 -46.98 -74.39 -69.92 -81.71 -81.07 L-91.34 -69.83 C-79.2 -64.3 -52.44 -41.36 -28.7 -19.82 Z" fill="url(#sdark3)"/><circle cx="-93" cy="-81" r="15.5" fill="#F7147F"/><path d="M-30.39 -15.9 C-63.54 -18.51 -99.91 -22.37 -112.74 -27.46 L-114.3 -12.74 C-100.69 -15.02 -64.33 -11.15 -31.36 -6.75 Z" fill="url(#sdark4)"/><circle cx="-122" cy="-21" r="15.5" fill="#F7147F"/><path d="M-30.84 -3.71 C-59.83 11.06 -92.14 26.42 -105.48 28.66 L-99.12 42.02 C-88.96 33.1 -56.65 17.74 -26.9 4.6 Z" fill="url(#sdark5)"/><circle cx="-110" cy="39" r="15.5" fill="#F7147F"/><path d="M-23.55 8.13 C-29.59 21.12 -37.1 34.93 -43.08 38.18 L-30.08 45.25 C-30.6 38.46 -23.09 24.65 -15.47 12.52 Z" fill="url(#sdark6)"/><circle cx="-40" cy="48" r="13" fill="#F7147F"/><circle cx="-9" cy="-9" r="27" fill="url(#sdark7)"/><line x1="35" y1="-23" x2="84" y2="-46" stroke="url(#sdark8)" stroke-width="4.6"/><circle cx="35" cy="-23" r="8" fill="#820AAA"/><circle cx="84" cy="-46" r="11.5" fill="#F7147F"/><line x1="4" y1="39" x2="16" y2="91" stroke="url(#sdark9)" stroke-width="4.6"/><circle cx="4" cy="39" r="8" fill="#F7147F"/><circle cx="16" cy="91" r="11.5" fill="#820AAA"/><polyline points="36,19 76,29 106,69" fill="none" stroke="#FFFFFF" stroke-width="3.5" stroke-linejoin="round" stroke-linecap="round"/><circle cx="36" cy="19" r="12.5" fill="#FFFFFF"/><circle cx="76" cy="29" r="12.5" fill="#FFFFFF"/><circle cx="106" cy="69" r="12.5" fill="#FFFFFF"/><g transform="translate(-375.52,259.8)"><path fill="#FFFFFF" d="M116.28 -39.0V0.0H102.72V-36.96Q102.72 -45.839999999999996 98.28 -50.58Q93.84 -55.32 86.16 -55.32Q78.48 -55.32 73.98 -50.58Q69.48 -45.839999999999996 69.48 -36.96V0.0H55.919999999999995V-36.96Q55.919999999999995 -45.839999999999996 51.48 -50.58Q47.04 -55.32 39.36 -55.32Q31.68 -55.32 27.18 -50.58Q22.68 -45.839999999999996 22.68 -36.96V0.0H9.0V-66.12H22.68V-58.559999999999995Q26.04 -62.64 31.2 -64.92Q36.36 -67.2 42.239999999999995 -67.2Q50.16 -67.2 56.4 -63.84Q62.64 -60.48 66.0 -54.12Q69.0 -60.12 75.36 -63.66Q81.72 -67.2 89.03999999999999 -67.2Q96.84 -67.2 103.02000000000001 -63.96Q109.2 -60.72 112.74000000000001 -54.36Q116.28 -48.0 116.28 -39.0Z M192.6 -27.959999999999997H142.07999999999998Q142.67999999999998 -20.04 147.95999999999998 -15.239999999999998Q153.23999999999998 -10.44 160.92 -10.44Q171.95999999999998 -10.44 176.51999999999998 -19.68H191.27999999999997Q188.27999999999997 -10.559999999999999 180.42 -4.739999999999999Q172.56 1.08 160.92 1.08Q151.44 1.08 143.94 -3.1799999999999997Q136.44 -7.4399999999999995 132.18 -15.18Q127.91999999999999 -22.919999999999998 127.91999999999999 -33.12Q127.91999999999999 -43.32 132.06 -51.06Q136.2 -58.8 143.7 -63.0Q151.2 -67.2 160.92 -67.2Q170.27999999999997 -67.2 177.59999999999997 -63.120000000000005Q184.92 -59.04 189.0 -51.66Q193.07999999999998 -44.28 193.07999999999998 -34.68Q193.07999999999998 -30.959999999999997 192.6 -27.959999999999997ZM178.79999999999998 -39.0Q178.67999999999998 -46.559999999999995 173.39999999999998 -51.12Q168.12 -55.68 160.32 -55.68Q153.23999999999998 -55.68 148.2 -51.18Q143.16 -46.68 142.2 -39.0Z M221.28 -54.96V-18.36Q221.28 -14.639999999999999 223.01999999999998 -13.02Q224.76 -11.4 228.95999999999998 -11.4H237.35999999999999V0.0H226.56Q217.32 0.0 212.39999999999998 -4.32Q207.48 -8.64 207.48 -18.36V-54.96H199.68V-66.12H207.48V-82.56H221.28V-66.12H237.35999999999999V-54.96Z M275.4 -67.2Q283.2 -67.2 289.02 -64.14Q294.84 -61.08 298.32 -56.519999999999996V-66.12H312.12V0.0H298.32V-9.84Q294.84 -5.16 288.84 -2.04Q282.84 1.08 275.15999999999997 1.08Q266.64 1.08 259.56 -3.3Q252.48 -7.68 248.33999999999997 -15.54Q244.2 -23.4 244.2 -33.36Q244.2 -43.32 248.33999999999997 -51.0Q252.48 -58.68 259.62 -62.94Q266.76 -67.2 275.4 -67.2ZM278.28 -55.32Q273.0 -55.32 268.44 -52.739999999999995Q263.88 -50.16 261.06 -45.17999999999999Q258.24 -40.199999999999996 258.24 -33.36Q258.24 -26.52 261.06 -21.36Q263.88 -16.2 268.5 -13.5Q273.12 -10.799999999999999 278.28 -10.799999999999999Q283.56 -10.799999999999999 288.12 -13.439999999999998Q292.68 -16.08 295.5 -21.18Q298.32 -26.279999999999998 298.32 -33.12Q298.32 -39.96 295.5 -45.0Q292.68 -50.04 288.12 -52.68Q283.56 -55.32 278.28 -55.32Z M355.67999999999995 -67.2Q362.15999999999997 -67.2 368.4599999999999 -64.38Q374.75999999999993 -61.559999999999995 378.47999999999996 -56.879999999999995V-88.8H392.28V0.0H378.47999999999996V-9.959999999999999Q375.11999999999995 -5.16 369.17999999999995 -2.04Q363.23999999999995 1.08 355.55999999999995 1.08Q346.91999999999996 1.08 339.78 -3.3Q332.64 -7.68 328.5 -15.54Q324.35999999999996 -23.4 324.35999999999996 -33.36Q324.35999999999996 -43.32 328.5 -51.0Q332.64 -58.68 339.78 -62.94Q346.91999999999996 -67.2 355.67999999999995 -67.2ZM358.43999999999994 -55.32Q353.15999999999997 -55.32 348.59999999999997 -52.739999999999995Q344.03999999999996 -50.16 341.21999999999997 -45.17999999999999Q338.4 -40.199999999999996 338.4 -33.36Q338.4 -26.52 341.21999999999997 -21.36Q344.03999999999996 -16.2 348.65999999999997 -13.5Q353.28 -10.799999999999999 358.43999999999994 -10.799999999999999Q363.71999999999997 -10.799999999999999 368.28 -13.439999999999998Q372.84 -16.08 375.65999999999997 -21.18Q378.47999999999996 -26.279999999999998 378.47999999999996 -33.12Q378.47999999999996 -39.96 375.65999999999997 -45.0Q372.84 -50.04 368.28 -52.68Q363.71999999999997 -55.32 358.43999999999994 -55.32Z M435.7199999999999 -67.2Q443.5199999999999 -67.2 449.3399999999999 -64.14Q455.1599999999999 -61.08 458.63999999999993 -56.519999999999996V-66.12H472.43999999999994V0.0H458.63999999999993V-9.84Q455.1599999999999 -5.16 449.1599999999999 -2.04Q443.1599999999999 1.08 435.4799999999999 1.08Q426.9599999999999 1.08 419.87999999999994 -3.3Q412.79999999999995 -7.68 408.65999999999997 -15.54Q404.5199999999999 -23.4 404.5199999999999 -33.36Q404.5199999999999 -43.32 408.65999999999997 -51.0Q412.79999999999995 -58.68 419.93999999999994 -62.94Q427.0799999999999 -67.2 435.7199999999999 -67.2ZM438.5999999999999 -55.32Q433.31999999999994 -55.32 428.75999999999993 -52.739999999999995Q424.19999999999993 -50.16 421.37999999999994 -45.17999999999999Q418.55999999999995 -40.199999999999996 418.55999999999995 -33.36Q418.55999999999995 -26.52 421.37999999999994 -21.36Q424.19999999999993 -16.2 428.81999999999994 -13.5Q433.43999999999994 -10.799999999999999 438.5999999999999 -10.799999999999999Q443.87999999999994 -10.799999999999999 448.43999999999994 -13.439999999999998Q452.99999999999994 -16.08 455.81999999999994 -21.18Q458.63999999999993 -26.279999999999998 458.63999999999993 -33.12Q458.63999999999993 -39.96 455.81999999999994 -45.0Q452.99999999999994 -50.04 448.43999999999994 -52.68Q443.87999999999994 -55.32 438.5999999999999 -55.32Z M505.1999999999999 -54.96V-18.36Q505.1999999999999 -14.639999999999999 506.9399999999999 -13.02Q508.6799999999999 -11.4 512.8799999999999 -11.4H521.2799999999999V0.0H510.4799999999999Q501.2399999999999 0.0 496.31999999999994 -4.32Q491.3999999999999 -8.64 491.3999999999999 -18.36V-54.96H483.5999999999999V-66.12H491.3999999999999V-82.56H505.1999999999999V-66.12H521.2799999999999V-54.96Z M592.5599999999998 -66.12V0.0H578.8799999999999V-7.8Q575.6399999999999 -3.7199999999999998 570.4199999999998 -1.38Q565.1999999999998 0.96 559.3199999999998 0.96Q551.5199999999999 0.96 545.3399999999999 -2.28Q539.1599999999999 -5.52 535.6199999999999 -11.879999999999999Q532.0799999999998 -18.24 532.0799999999998 -27.24V-66.12H545.6399999999999V-29.279999999999998Q545.6399999999999 -20.4 550.0799999999999 -15.66Q554.5199999999999 -10.92 562.1999999999998 -10.92Q569.8799999999999 -10.92 574.3799999999999 -15.66Q578.8799999999999 -20.4 578.8799999999999 -29.279999999999998V-66.12Z M716.6399999999998 -39.0V0.0H703.0799999999998V-36.96Q703.0799999999998 -45.839999999999996 698.6399999999999 -50.58Q694.1999999999998 -55.32 686.5199999999998 -55.32Q678.8399999999998 -55.32 674.3399999999998 -50.58Q669.8399999999998 -45.839999999999996 669.8399999999998 -36.96V0.0H656.2799999999997V-36.96Q656.2799999999997 -45.839999999999996 651.8399999999997 -50.58Q647.3999999999997 -55.32 639.7199999999998 -55.32Q632.0399999999997 -55.32 627.5399999999997 -50.58Q623.0399999999997 -45.839999999999996 623.0399999999997 -36.96V0.0H609.3599999999998V-66.12H623.0399999999997V-58.559999999999995Q626.3999999999997 -62.64 631.5599999999997 -64.92Q636.7199999999998 -67.2 642.5999999999998 -67.2Q650.5199999999998 -67.2 656.7599999999998 -63.84Q662.9999999999998 -60.48 666.3599999999998 -54.12Q669.3599999999998 -60.12 675.7199999999998 -63.66Q682.0799999999998 -67.2 689.3999999999997 -67.2Q697.1999999999998 -67.2 703.3799999999999 -63.96Q709.5599999999998 -60.72 713.0999999999998 -54.36Q716.6399999999998 -48.0 716.6399999999998 -39.0Z"/></g></svg>